<svg width="1440" height="204" viewBox="0 0 1440 204" fill="none" xmlns="http://www.w3.org/2000/svg"><g clip-path="url(#clip0)"><path fill-rule="evenodd" clip-rule="evenodd" d="M1005.47 0c-39.729 14.837-74.291 31.175-108.219 47.213-95.786 45.277-186.52 88.167-374.257 88.167-156.235 5.359-266.515-25.039-365.491-52.32C103.513 68.18 52.887 54.224 0 47.506V0h1005.47z" fill="url(#paint0_linear)"/><path d="M1440 96V0H0v94.221c74.548 8.013 154.453-6.678 239.715-44.074C367.607-5.946 450.727 9.43 609.614 90.214 768.5 171 992.5 215.5 1162 197c169.5-18.5 278-101 278-101z" fill="url(#paint1_linear)" opacity=".8"/></g><defs><linearGradient id="paint0_linear" x1="1499.25" y1="-164" x2="1499.25" y2="113.735" gradientUnits="userSpaceOnUse"><stop stop-color="#EBFFEF"/><stop offset=".542" stop-color="#F4FFF6"/></linearGradient><linearGradient id="paint1_linear" x1="1846.5" y1="134.5" x2="1508.25" y2="848.762" gradientUnits="userSpaceOnUse"><stop stop-color="#D8F4F3"/><stop offset="1" stop-color="#E5F5FF" stop-opacity=".5"/></linearGradient><clipPath id="clip0"><path fill="#fff" d="M0 0h1440v204H0z"/></clipPath></defs></svg>